<svg width="549" height="325" viewBox="0 0 549 325" fill="none" xmlns="http://www.w3.org/2000/svg">
<path fill-rule="evenodd" clip-rule="evenodd" d="M454.894 280.146C449.321 283.386 439.009 287.265 430.496 278.594C421.72 269.696 415.445 269.878 412.505 270.745C411.628 270.563 410.662 270.974 410.18 271.841L391.706 306.75C390.258 309.488 387.449 311.223 384.422 311.223H324.261C323.076 311.223 322.111 312.226 322.111 313.459C322.111 314.691 323.076 315.695 324.261 315.695H384.422C389.029 315.695 393.242 313.094 395.479 308.895L406.274 288.451C410.311 288.999 415.796 290.87 420.93 296.118C430.847 306.157 442.476 300.499 446.732 297.806C447.785 297.167 448.619 296.209 449.234 295.114L456.474 281.834C457.132 280.739 455.947 279.507 454.894 280.146Z" fill="black"/>
<path fill-rule="evenodd" clip-rule="evenodd" d="M156.329 239.76C156.066 239.167 155.364 238.939 154.837 239.258C154.661 239.349 152.818 240.536 144.788 244.688L141.102 246.559C123.594 255.321 97.7481 266.456 87.2605 261.847C86.8217 261.664 86.339 261.756 86.0319 262.121C85.988 262.166 82.2142 266.41 73.9646 270.426C66.3733 274.122 53.2968 278.321 34.2086 277.362C33.5504 277.317 32.9799 277.91 33.1116 278.64C33.1993 279.188 33.6382 279.553 34.1647 279.598C35.8761 279.69 37.4997 279.735 39.1233 279.735L39.9131 285.12C40.0886 286.306 41.6245 286.626 42.1949 285.576L45.5299 279.553C47.8555 279.416 50.0935 279.188 52.2436 278.914L53.4723 283.568C53.7795 284.709 55.3153 284.846 55.798 283.797L58.4308 277.91C60.2299 277.545 61.8974 277.134 63.4771 276.723L64.4864 280.602C64.7935 281.743 66.3294 281.88 66.8121 280.83L69.5327 274.807C71.5512 274.077 73.3064 273.301 74.8861 272.525L75.5882 275.217C75.8954 276.358 77.4312 276.495 77.9139 275.446L80.6345 269.331C84.1889 267.095 86.2952 265.132 87.2167 264.174C89.4546 264.996 92.1752 265.224 95.2468 265.041L97.0898 269.787C97.5286 270.882 98.9767 270.837 99.3716 269.741L101.39 264.22C103.321 263.855 105.296 263.398 107.314 262.805L108.148 266.501C108.411 267.688 109.947 267.87 110.43 266.775L113.282 260.934C115.213 260.295 117.143 259.565 119.074 258.835L119.82 262.166C120.083 263.307 121.531 263.535 122.102 262.531L125.525 256.279C127.236 255.549 128.947 254.819 130.659 254.043L131.492 257.238C131.8 258.379 133.335 258.516 133.818 257.466L136.539 251.351C138.382 250.484 140.137 249.617 141.848 248.75L142.507 251.351C142.814 252.492 144.349 252.629 144.832 251.579L147.333 246.012C154.135 242.452 155.407 241.631 156.066 241.266C156.329 240.947 156.592 240.308 156.329 239.76Z" fill="black"/>
<path fill-rule="evenodd" clip-rule="evenodd" d="M208.591 223.651C208.152 223.469 207.669 223.56 207.362 223.925C207.318 223.971 203.545 228.215 195.295 232.23C187.704 235.927 174.627 240.125 155.539 239.167C154.881 239.121 154.31 239.714 154.442 240.444C154.53 240.992 154.969 241.357 155.495 241.403C157.207 241.494 158.83 241.54 160.454 241.54L161.2 246.833C161.375 248.065 162.955 248.385 163.569 247.29L166.816 241.357C169.142 241.22 171.38 240.992 173.53 240.718L174.715 245.282C175.022 246.468 176.602 246.605 177.085 245.51L179.674 239.714C181.473 239.349 183.14 238.939 184.72 238.528L186.124 242.909C186.519 244.095 188.099 244.141 188.537 242.954L190.775 236.611C192.794 235.881 194.549 235.105 196.129 234.33L196.787 236.931C197.094 238.117 198.674 238.254 199.157 237.159L201.833 231.181C205.388 228.945 207.494 226.983 208.415 226.024" fill="black"/>
<path fill-rule="evenodd" clip-rule="evenodd" d="M488.156 249.206C487.936 248.613 487.278 248.294 486.752 248.567C469.858 255.914 452.086 252.218 433.963 237.661C420.316 226.709 411.628 213.338 411.54 213.247C411.189 212.745 410.531 212.608 410.048 212.927C409.565 213.292 409.434 213.977 409.741 214.479C409.785 214.57 412.33 218.495 416.849 223.834L419 234.558C419.219 235.744 420.755 235.972 421.325 234.968L423.476 231.181C425.318 233.052 427.293 234.923 429.399 236.748L431.681 245.008C431.988 246.103 433.393 246.286 433.963 245.327L435.982 242.042C437.781 243.365 439.58 244.552 441.423 245.692L444.582 254.956C444.933 256.006 446.337 256.143 446.864 255.184L449.672 250.073C451.428 250.849 453.139 251.488 454.894 252.036L459.019 259.519C459.589 260.523 460.994 260.341 461.345 259.246L462.88 253.906C465.118 254.226 467.356 254.408 469.594 254.408C469.77 254.408 469.945 254.408 470.121 254.408L474.553 260.432C475.167 261.299 476.484 261.025 476.791 259.976L478.59 253.45C481.574 252.811 484.514 251.899 487.454 250.621C488.024 250.393 488.375 249.754 488.156 249.206Z" fill="black"/>
<path fill-rule="evenodd" clip-rule="evenodd" d="M33.9892 277.043C34.6902 277.043 35.2633 277.613 35.3033 278.331L35.3056 278.412V323.498C35.3056 324.254 34.7162 324.867 33.9892 324.867C33.2881 324.867 32.715 324.297 32.675 323.578L32.6727 323.498V278.412C32.6727 277.656 33.2621 277.043 33.9892 277.043Z" fill="black"/>
<path fill-rule="evenodd" clip-rule="evenodd" d="M86.7779 261.527C87.4789 261.527 88.052 262.097 88.092 262.816L88.0943 262.896V322.768C88.0943 323.524 87.5049 324.137 86.7779 324.137C86.0768 324.137 85.5037 323.567 85.4637 322.848L85.4614 322.768V262.896C85.4614 262.14 86.0508 261.527 86.7779 261.527Z" fill="black"/>
<path fill-rule="evenodd" clip-rule="evenodd" d="M155.495 238.802C156.196 238.802 156.769 239.372 156.809 240.09L156.812 240.171V322.677C156.812 323.433 156.222 324.046 155.495 324.046C154.794 324.046 154.221 323.476 154.181 322.757L154.179 322.677V240.171C154.179 239.415 154.768 238.802 155.495 238.802Z" fill="black"/>
<path fill-rule="evenodd" clip-rule="evenodd" d="M487.278 248.02C487.979 248.02 488.552 248.59 488.592 249.308L488.595 249.389V323.498C488.595 324.254 488.005 324.867 487.278 324.867C486.577 324.867 486.004 324.297 485.964 323.578L485.962 323.498V249.389C485.962 248.633 486.551 248.02 487.278 248.02Z" fill="black"/>
<path fill-rule="evenodd" clip-rule="evenodd" d="M406.537 207.451L247.689 208.547C245.144 208.547 242.862 209.916 241.809 212.015L190.556 308.987L60.3176 309.078C60.3176 309.078 58.0797 322.677 76.8168 323.498L357.654 323.133L412.505 216.122C414.611 212.06 411.364 207.406 406.537 207.451Z" fill="black"/>
<path fill-rule="evenodd" clip-rule="evenodd" d="M206.88 308.576L341.023 307.983L382.535 223.879C384.158 220.639 382.008 216.715 378.673 216.761L256.772 218.312L206.88 308.576Z" fill="white"/>
<path fill-rule="evenodd" clip-rule="evenodd" d="M393.405 207.542C399.155 207.489 403.072 213.07 400.664 218.076L400.589 218.228L346.265 323.779C345.922 324.446 345.124 324.697 344.483 324.34C343.866 323.996 343.619 323.214 343.908 322.562L343.944 322.487L398.265 216.943C399.838 213.845 397.347 210.244 393.429 210.28C392.702 210.287 392.107 209.68 392.101 208.923C392.094 208.167 392.678 207.549 393.405 207.542Z" fill="white"/>
<path fill-rule="evenodd" clip-rule="evenodd" d="M214.032 250.484L228.732 278.594C229.478 279.918 231.409 279.37 231.409 277.864L230.444 265.087C230.444 265.087 239.044 295.844 250.848 296.62C262.652 297.395 273.973 264.22 273.973 264.22L270.858 278.138C270.858 279.69 272.789 280.192 273.535 278.868L289.244 250.484" fill="black"/>
<path fill-rule="evenodd" clip-rule="evenodd" d="M195.646 141.784C195.646 141.784 160.585 191.16 165.105 235.334H242.467V140.735L195.646 141.784Z" fill="black"/>
<path fill-rule="evenodd" clip-rule="evenodd" d="M305.875 141.784C305.875 141.784 340.935 191.16 336.416 235.334H259.054V140.735L305.875 141.784Z" fill="black"/>
<path fill-rule="evenodd" clip-rule="evenodd" d="M282.311 235.334C312.018 179.797 308.771 135.715 300.126 105.505C291.438 75.2958 271.077 41.618 251.726 41.618C232.374 41.618 212.014 75.2958 203.325 105.505C194.637 135.715 190.995 179.797 220.702 235.334L212.409 253.952H290.736L282.311 235.334Z" fill="white"/>
<path fill-rule="evenodd" clip-rule="evenodd" d="M251.726 40.249C242.095 40.249 231.937 47.9844 222.465 61.4238C213.985 73.4565 206.566 89.4605 202.064 105.113C196.929 122.968 194.747 141.329 196.303 161.034L196.362 161.754C198.309 185.063 205.477 209.25 218.732 234.455L219.226 235.388L211.214 253.377C210.81 254.284 211.447 255.321 212.408 255.321H290.736L290.811 255.319C291.734 255.266 292.327 254.253 291.927 253.369L283.788 235.384L284.289 234.438C297.691 208.958 304.944 184.529 306.912 161.041C308.568 141.275 306.465 122.856 301.388 105.115C296.886 89.4605 289.467 73.4565 280.986 61.4238C271.515 47.9844 261.357 40.249 251.726 40.249ZM251.726 42.9871C260.318 42.9871 269.838 50.2364 278.863 63.0424C287.158 74.813 294.447 90.5347 298.865 105.898C303.851 123.321 305.915 141.398 304.289 160.803C302.314 184.38 294.914 208.956 281.16 234.668L281.119 234.752C280.953 235.119 280.952 235.546 281.12 235.916L288.661 252.583H214.469L221.896 235.909C222.073 235.512 222.057 235.051 221.852 234.668C208.113 208.983 200.792 184.421 198.927 160.81C197.399 141.463 199.541 123.44 204.586 105.898C209.005 90.5347 216.293 74.813 224.589 63.0424C233.614 50.2364 243.133 42.9871 251.726 42.9871Z" fill="black"/>
<path fill-rule="evenodd" clip-rule="evenodd" d="M251.726 155.885C263.94 155.885 273.842 143.627 273.842 128.505C273.842 113.383 263.94 101.125 251.726 101.125C239.512 101.125 229.61 113.383 229.61 128.505C229.61 143.627 239.512 155.885 251.726 155.885Z" fill="black"/>
<path fill-rule="evenodd" clip-rule="evenodd" d="M251.726 168.206C253.762 168.206 255.412 166.163 255.412 163.643C255.412 161.123 253.762 159.079 251.726 159.079C249.69 159.079 248.04 161.123 248.04 163.643C248.04 166.163 249.69 168.206 251.726 168.206Z" fill="black"/>
<path fill-rule="evenodd" clip-rule="evenodd" d="M265.943 168.206C267.979 168.206 269.629 166.163 269.629 163.643C269.629 161.123 267.979 159.079 265.943 159.079C263.907 159.079 262.257 161.123 262.257 163.643C262.257 166.163 263.907 168.206 265.943 168.206Z" fill="black"/>
<path fill-rule="evenodd" clip-rule="evenodd" d="M236.411 168.206C238.447 168.206 240.097 166.163 240.097 163.643C240.097 161.123 238.447 159.079 236.411 159.079C234.376 159.079 232.725 161.123 232.725 163.643C232.725 166.163 234.376 168.206 236.411 168.206Z" fill="black"/>
<path fill-rule="evenodd" clip-rule="evenodd" d="M251.726 146.485C260.959 146.485 268.444 137.229 268.444 125.812C268.444 114.396 260.959 105.14 251.726 105.14C242.492 105.14 235.007 114.396 235.007 125.812C235.007 137.229 242.492 146.485 251.726 146.485Z" fill="white"/>
<path fill-rule="evenodd" clip-rule="evenodd" d="M251.726 103.771C241.71 103.771 233.691 113.687 233.691 125.812C233.691 137.938 241.71 147.854 251.726 147.854C261.742 147.854 269.761 137.938 269.761 125.812C269.761 113.687 261.742 103.771 251.726 103.771ZM251.726 106.509C260.177 106.509 267.128 115.104 267.128 125.812C267.128 136.521 260.177 145.115 251.726 145.115C243.275 145.115 236.324 136.521 236.324 125.812C236.324 115.104 243.275 106.509 251.726 106.509Z" fill="black"/>
<path fill-rule="evenodd" clip-rule="evenodd" d="M255.631 40.8423V8.48789C255.631 8.39663 255.631 8.30536 255.631 8.16846C256.202 7.34705 256.553 6.29747 256.553 5.20226C256.553 2.4186 254.402 0.182541 251.726 0.182541C249.049 0.182541 246.899 2.4186 246.899 5.20226C246.899 6.29747 247.25 7.34705 247.82 8.16846C247.82 8.25972 247.82 8.35099 247.82 8.48789V40.7966C239.702 42.5307 231.584 49.604 224.169 59.0958C232.55 57.0879 242.335 55.9927 253.569 56.6316C263.617 57.2248 272.569 58.6851 280.424 60.6473C272.745 50.4254 264.144 42.7589 255.631 40.8423Z" fill="black"/>
<path fill-rule="evenodd" clip-rule="evenodd" d="M287.752 77.4406C278.054 74.0637 266.909 71.0975 251.945 70.5042C236.675 69.911 225.09 73.4704 215.568 77.3493C211.399 85.3809 208.108 93.3211 205.432 101.855C216.841 96.0592 230.839 89.9442 252.296 90.3549C272.701 90.72 286.743 95.4203 297.406 100.349C294.817 92.3628 291.657 85.0158 287.752 77.4406Z" fill="black"/>
<path fill-rule="evenodd" clip-rule="evenodd" d="M281.17 235.105C282.574 232.459 283.934 229.857 285.207 227.256C278.493 224.427 268.839 222.054 251.682 222.237C234.349 222.1 224.651 224.518 217.938 227.393C219.21 229.949 220.526 232.55 221.887 235.151C221.887 235.151 237.113 232.048 251.638 232.185C265.943 232.048 281.17 235.105 281.17 235.105Z" fill="black"/>
<path fill-rule="evenodd" clip-rule="evenodd" d="M362.086 307.983H293.105C293.105 307.983 283.188 298.719 287.752 291.144C292.316 283.568 304.295 281.743 308.2 289.41C308.2 289.41 309.912 274.761 324.349 275.902C338.829 277.043 337.688 292.695 337.688 292.695C337.688 292.695 355.987 279.233 355.504 300.27C355.46 300.225 356.601 307.983 362.086 307.983Z" fill="white"/>
<path fill-rule="evenodd" clip-rule="evenodd" d="M293.105 309.352H362.086L362.175 309.349C363.812 309.26 363.812 306.706 362.175 306.616L362.086 306.614C360.254 306.614 358.892 305.486 357.89 303.479C357.514 302.726 357.222 301.906 357.014 301.101C356.952 300.862 356.902 300.64 356.864 300.447L356.829 300.256L356.822 300.212L356.82 300.303C357.053 290.168 352.977 286.101 346.379 287.275C344.522 287.605 342.576 288.336 340.61 289.347L340.259 289.53C339.911 289.715 339.571 289.903 339.241 290.095L338.964 290.257L338.962 290.236C338.938 289.918 338.906 289.588 338.866 289.247C338.644 287.356 338.2 285.489 337.479 283.729C335.345 278.524 331.185 275.14 324.682 274.557L324.448 274.537C317.418 273.981 312.511 276.843 309.498 281.903L309.323 282.204C308.633 283.414 308.09 284.678 307.674 285.953L307.575 286.265L307.457 286.146C302 280.758 291.228 282.795 286.636 290.417C285.849 291.724 285.401 293.129 285.273 294.605C284.979 298.001 286.345 301.499 288.766 304.936C289.519 306.003 290.322 306.988 291.126 307.869L291.328 308.088C291.719 308.508 292.029 308.817 292.226 309.001C292.467 309.227 292.781 309.352 293.105 309.352ZM324.249 277.267C329.868 277.71 333.27 280.443 335.057 284.803C335.673 286.307 336.059 287.929 336.253 289.579C336.376 290.626 336.409 291.55 336.389 292.279L336.382 292.479L336.376 292.592C336.293 293.721 337.484 294.449 338.388 293.855L338.621 293.69L338.928 293.481C339.061 293.391 339.205 293.296 339.36 293.197C340.099 292.721 340.914 292.245 341.777 291.801C343.532 290.899 345.251 290.253 346.823 289.973C349.028 289.581 350.749 289.938 351.948 291.134L352.03 291.218C353.44 292.699 354.232 295.465 354.196 299.738L354.189 300.158L354.187 300.203L354.189 300.365L354.198 300.467L354.207 300.539C354.215 300.602 354.227 300.676 354.241 300.758L354.256 300.843C354.307 301.127 354.38 301.458 354.471 301.812C354.726 302.796 355.083 303.797 355.553 304.74L355.633 304.896C355.912 305.439 356.22 305.941 356.557 306.398L356.721 306.613H293.63L293.519 306.499C293.368 306.342 293.206 306.171 293.036 305.984C292.304 305.182 291.572 304.285 290.89 303.317C288.812 300.368 287.671 297.445 287.895 294.85C287.986 293.8 288.302 292.809 288.868 291.871C293.064 284.905 303.57 283.687 306.937 289.861L307.037 290.05C307.628 291.211 309.282 290.918 309.496 289.655L309.522 289.469C309.535 289.379 309.556 289.25 309.587 289.085C309.665 288.66 309.774 288.183 309.916 287.667C310.325 286.19 310.921 284.714 311.736 283.345C314.252 279.12 318.243 276.792 324.249 277.267Z" fill="black"/>
<path fill-rule="evenodd" clip-rule="evenodd" d="M142.463 308.119H211.443C211.443 308.119 221.36 298.856 216.797 291.281C212.233 283.705 200.254 281.88 196.348 289.546C196.348 289.546 194.637 274.898 180.2 276.039C165.719 277.18 166.86 292.832 166.86 292.832C166.86 292.832 148.562 279.37 149.045 300.407C149.089 300.362 147.948 308.074 142.463 308.119Z" fill="white"/>
<path fill-rule="evenodd" clip-rule="evenodd" d="M142.463 309.488H211.443C211.768 309.488 212.081 309.364 212.323 309.138L212.431 309.036C212.664 308.81 213.005 308.463 213.422 308.006C214.227 307.124 215.03 306.14 215.782 305.072C218.203 301.636 219.569 298.138 219.275 294.742C219.148 293.266 218.7 291.861 217.912 290.554L217.753 290.296C213.076 282.886 202.486 280.956 197.092 286.283L196.974 286.402L196.875 286.09C196.424 284.709 195.825 283.34 195.051 282.04C192.072 277.038 187.243 274.184 180.342 274.656L180.101 274.674C173.462 275.197 169.229 278.599 167.07 283.866C166.348 285.626 165.905 287.493 165.683 289.384L165.654 289.638C165.636 289.805 165.62 289.97 165.606 290.132L165.585 290.394L165.307 290.231C164.867 289.977 164.41 289.726 163.939 289.484C161.973 288.473 160.027 287.742 158.17 287.411L157.973 287.378C151.556 286.33 147.579 290.324 147.723 300.138L147.726 300.348L147.706 300.468C147.667 300.683 147.609 300.945 147.535 301.229C147.327 302.031 147.035 302.846 146.659 303.597L146.583 303.746C145.613 305.608 144.313 306.68 142.589 306.747L142.452 306.75C140.704 306.765 140.714 309.488 142.463 309.488ZM192.812 283.482C193.628 284.851 194.224 286.327 194.632 287.804C194.775 288.32 194.883 288.797 194.962 289.222L195.02 289.558L195.041 289.712C195.194 291.015 196.839 291.358 197.473 290.258L197.511 290.187C200.765 283.8 211.443 284.972 215.681 292.007C216.246 292.946 216.562 293.937 216.653 294.987C216.878 297.582 215.737 300.505 213.658 303.454C212.977 304.422 212.244 305.319 211.512 306.121L211.386 306.258L211.145 306.516C211.067 306.598 210.991 306.676 210.918 306.75L147.812 306.75L147.822 306.737C148.258 306.181 148.649 305.552 148.995 304.861C149.465 303.921 149.822 302.924 150.077 301.944C150.168 301.592 150.241 301.262 150.293 300.979L150.321 300.816C150.329 300.765 150.336 300.718 150.342 300.676L150.351 300.604L150.36 300.502L150.362 300.346L150.359 300.291L150.353 299.875C150.315 295.52 151.139 292.73 152.601 291.271C153.8 290.074 155.521 289.718 157.726 290.11C159.298 290.39 161.016 291.036 162.772 291.938C163.635 292.382 164.45 292.858 165.189 293.334L165.484 293.526C165.531 293.557 165.577 293.588 165.621 293.617L165.927 293.827L166.1 293.95C166.989 294.604 168.202 293.916 168.177 292.805L168.165 292.569C168.136 291.818 168.164 290.837 168.296 289.716C168.49 288.065 168.875 286.444 169.492 284.94C171.254 280.64 174.588 277.922 180.07 277.423L180.3 277.404C186.305 276.929 190.296 279.257 192.812 283.482Z" fill="black"/>
<path fill-rule="evenodd" clip-rule="evenodd" d="M546.781 322.129C547.508 322.129 548.097 322.742 548.097 323.498C548.097 324.227 547.549 324.823 546.858 324.865L546.781 324.867H2.21938C1.49234 324.867 0.902954 324.254 0.902954 323.498C0.902954 322.769 1.45099 322.173 2.14203 322.131L2.21938 322.129H546.781Z" fill="black"/>
</svg>
